<svg xmlns="http://www.w3.org/2000/svg" width="268" height="76" viewBox="0 0 268 76"><defs><style>.a,.e{fill:#fff;}.a{stroke:#e3e3e3;}.b{fill:#21282e;}.b,.e,.f{font-size:10px;font-family:HelveticaNeue-Medium, Helvetica Neue;font-weight:500;}.c{fill:#706f6f;}.d{fill:#ef5245;}.f{fill:#a9abac;}.g{fill:#b99ff5;}.h{stroke:none;}.i{fill:none;}</style></defs><g transform="translate(8931 -9611)"><g class="a" transform="translate(-8931 9611)"><rect class="h" width="268" height="76" rx="4"/><rect class="i" x="0.5" y="0.5" width="267" height="75" rx="3.5"/></g><text class="b" transform="translate(-8917 9638)"><tspan x="0" y="0">CASH RECON WITH CP - CASH</tspan></text><g transform="translate(-8914.23 9100)"><g transform="translate(785.23 -1101.23) rotate(90)"><circle class="c" cx="2" cy="2" r="2" transform="translate(1624.23 544)"/><circle class="c" cx="2" cy="2" r="2" transform="translate(1632.23 544)"/><circle class="c" cx="2" cy="2" r="2" transform="translate(1640.23 544)"/></g></g><g transform="translate(-9035 8937)"><rect class="d" width="113" height="26" rx="4" transform="translate(118 713)"/><text class="e" transform="translate(128 730)"><tspan x="0" y="0">BREACHED/FAILED</tspan></text></g><text class="f" transform="translate(-8793 9667)"><tspan x="0" y="0">SLA: 20 Jul 2020, 9:10 AM</tspan></text><path class="g" d="M4,0H4A0,0,0,0,1,4,0V76a0,0,0,0,1,0,0H4a4,4,0,0,1-4-4V4A4,4,0,0,1,4,0Z" transform="translate(-8931 9611)"/></g></svg>